{"title":"16.Blocks.2006.HDRip.Xvid.AC3-SiC","uid":6600922,"size":1401915280,"categoryP":"video","categoryS":"movies","magnet":"?xt=urn:btih:cbe581a2583f55a5c6ad6be5c5e2e1635eb1133e&amp;dn=16.Blocks.2006.HDRip.Xvid.AC3-SiC&amp;tr=udp%3A%2F%2Ftracker.openbittorrent.com%3A80&amp;tr=udp%3A%2F%2Fopen.demonii.com%3A1337&amp;tr=udp%3A%2F%2Ftracker.coppersurfer.tk%3A6969&amp;tr=udp%3A%2F%2Fexodus.desync.com%3A6969","seeders":0,"leechers":1,"uploader":"TvTeam","files":5,"time":1313204175,"description":". \n  &lt;a href=&quot;\nhttp://www.torrenting.com/&quot; rel=&quot;nofollow&quot; target=&quot;_NEW&quot;&gt;\nhttp://www.torrenting.com/&lt;/a&gt;        :     Greatest Movie Tracker on The Net!!!\n &lt;a href=&quot;\nhttp://www.Torrenting.com&quot; rel=&quot;nofollow&quot; target=&quot;_NEW&quot;&gt;\nhttp://www.Torrenting.com&lt;/a&gt;          :     Once &amp; For all ;)\n\n\n               www . Torrenting . Com \n\n(((((((((((((= Enjoy No RAR releases =))))))))))))))))))))\n\n\n...................................NFO:....................................\n\n.\n\n\n\n\n\n\n\n\n\n\n\n\n\n\n\n\n\n\n\n\n\n\n\n\n\n\n\n\n\n\n\n\n\n\n\n\n\n\n\n\n          \n          \n              \n              \n                    \n                    \n                    \n                    \n\n16.Blocks.2006.HDRip.Xvid.AC3-SiC\n\nPoster:\n[img]http://leetleech.org/images/55995306630679167248.jpg[/img]\n\nIMDB Link:\nhttp://www.imdb.com/title/tt0450232/\n\nDescription:\nAn aging cop is assigned the ordinary task of escorting a fast-talking witness \nfrom police custody to a courthouse. There are however forces at work trying \nto stop prevent them from making it. \n\nMediaInfo:\nGeneral\nComplete name                    : 16.Blocks.2006.HDRip.Xvid.AC3-SiC.avi\nFormat                           : AVI\nFormat/Info                      : Audio Video Interleave\nFile size                        : 1.30 GiB\nDuration                         : 1h 41mn\nOverall bit rate                 : 1 825 Kbps\n\nVideo\nID                               : 0\nFormat                           : MPEG-4 Visual\nFormat profile                   : Advanced Simple@L5\nFormat settings, BVOP            : Yes\nFormat settings, QPel            : No\nFormat settings, GMC             : No warppoints\nFormat settings, Matrix          : Default (H.263)\nMuxing mode                      : Packed bitstream\nCodec ID                         : XVID\nCodec ID/Hint                    : XviD\nDuration                         : 1h 41mn\nBit rate                         : 1 433 Kbps\nWidth                            : 720 pixels\nHeight                           : 304 pixels\nDisplay aspect ratio             : 2.35:1\nFrame rate                       : 23.976 fps\nResolution                       : 8 bits\nColorimetry                      : 4:2:0\nScan type                        : Progressive\nBits/(Pixel*Frame)               : 0.273\nStream size                      : 1.02 GiB (79%)\nWriting library                  : XviD 64\n\nAudio\nID                               : 1\nFormat                           : AC-3\nFormat/Info                      : Audio Coding 3\nFormat_Settings_ModeExtension    : CM (complete main)\nCodec ID                         : 2000\nDuration                         : 1h 41mn\nBit rate mode                    : Constant\nBit rate                         : 384 Kbps\nChannel(s)                       : 6 channels\nChannel positions                : Front: L C R, Side: L R, LFE\nSampling rate                    : 48.0 KHz\nStream size                      : 279 MiB (21%)\nAlignment                        : Aligned on interleaves\nInterleave, duration             : 64 ms (1.53 video frames)\nInterleave, preload duration     : 192 ms\nTitle                            : 6ch English\n\nScreenshots:\n[img]http://leetleech.org/images/99426215529607726499.png[/img]\n[img]http://leetleech.org/images/33902487420318006340.png[/img]\n[img]http://leetleech.org/images/95269530145824483959.png[/img]\n[img]http://leetleech.org/images/24144107580409990380.png[/img]\n[img]http://leetleech.org/images/61591109689777670903.png[/img]\n\nNote :   N/A \n\nSource : BluRay-ESiR Thanks!!!\n\nEncoder: Bezauk\n\nEnjoy!\n\nRespects to CaptainHomey, Cyanide, CM8, Rx, THC, ELEKTRI4KA, \nKillerhz, PA, YeFsTe, BoxSlots, MrRep and everyone in the struggle...","torrent":{"xt":"urn:btih:cbe581a2583f55a5c6ad6be5c5e2e1635eb1133e","amp;dn":"16.Blocks.2006.HDRip.Xvid.AC3-SiC","amp;tr":["udp%3A%2F%2Ftracker.openbittorrent.com%3A80","udp%3A%2F%2Fopen.demonii.com%3A1337","udp%3A%2F%2Ftracker.coppersurfer.tk%3A6969","udp%3A%2F%2Fexodus.desync.com%3A6969"],"infoHash":"cbe581a2583f55a5c6ad6be5c5e2e1635eb1133e","infoHashBuffer":{"type":"Buffer","data":[203,229,129,162,88,63,85,165,198,173,107,229,197,226,225,99,94,177,19,62]},"announce":[],"urlList":[]}}